<svg xmlns="http://www.w3.org/2000/svg" xmlns:xlink="http://www.w3.org/1999/xlink" viewBox="0 0 269.771 312.246">
  <defs>
    <style>
      .cls-1 {
        fill: url(#linear-gradient);
      }

      .cls-2 {
        fill: #c2b49a;
      }

      .cls-3 {
        fill: #ded0b3;
      }

      .cls-4 {
        fill: #fee581;
      }

      .cls-5 {
        fill: #d3c3a9;
        stroke: #c5b396;
      }

      .cls-6 {
        fill: #c2b799;
      }

      .cls-7 {
        fill: #c5b79a;
      }

      .cls-8 {
        fill: #cdc2a4;
      }

      .cls-9 {
        fill: #ac9d86;
      }

      .cls-10 {
        fill: #e1d0a5;
      }

      .cls-11 {
        fill: #f8fcfb;
      }

      .cls-12 {
        fill: #bbad93;
      }

      .cls-13 {
        fill: #dcdcc4;
      }

      .cls-14 {
        fill: #454545;
      }

      .cls-15 {
        fill: #575757;
      }

      .cls-16 {
        fill: #585858;
      }

      .cls-17 {
        fill: #fff;
      }

      .cls-18 {
        fill: url(#linear-gradient-2);
      }

      .cls-19 {
        fill: url(#linear-gradient-3);
      }

      .cls-20 {
        fill: url(#linear-gradient-4);
      }

      .cls-21 {
        filter: url(#Path_124);
      }
    </style>
    <linearGradient id="linear-gradient" x1="0.156" y1="-0.139" x2="0.866" y2="0.558" gradientUnits="objectBoundingBox">
      <stop offset="0" stop-opacity="0.361"/>
      <stop offset="1" stop-color="gray" stop-opacity="0"/>
    </linearGradient>
    <filter id="Path_124" x="22.458" y="73.472" width="176.894" height="170.37" filterUnits="userSpaceOnUse">
      <feOffset dy="3" input="SourceAlpha"/>
      <feGaussianBlur stdDeviation="3" result="blur"/>
      <feFlood flood-opacity="0.161"/>
      <feComposite operator="in" in2="blur"/>
      <feComposite in="SourceGraphic"/>
    </filter>
    <linearGradient id="linear-gradient-2" x1="0.007" y1="0.509" x2="0.983" y2="0.48" gradientUnits="objectBoundingBox">
      <stop offset="0" stop-color="#fff" stop-opacity="0"/>
      <stop offset="1" stop-color="#2a2a2a" stop-opacity="0.412"/>
    </linearGradient>
    <linearGradient id="linear-gradient-3" x1="0.012" y1="0.596" x2="0.996" y2="0.47" gradientUnits="objectBoundingBox">
      <stop offset="0" stop-color="#fff" stop-opacity="0"/>
      <stop offset="1" stop-opacity="0.412"/>
    </linearGradient>
    <linearGradient id="linear-gradient-4" x1="0.021" y1="0.554" x2="0.972" y2="0.633" gradientUnits="objectBoundingBox">
      <stop offset="0" stop-color="#fff" stop-opacity="0.051"/>
      <stop offset="1" stop-opacity="0.412"/>
    </linearGradient>
  </defs>
  <g id="Group_554" data-name="Group 554" transform="translate(-53 -147)">
    <path id="Path_138" data-name="Path 138" class="cls-1" d="M7322.23,951.667l77.987,18.894-77.987,106.127L7155,967.345l7.638-1.608Z" transform="translate(-7077.446 -617.441)"/>
    <path id="Path_130" data-name="Path 130" class="cls-2" d="M7584.081,838.969l66.373,11.026-39.04,17.784s-2.652-5.789-12.3-15.437S7584.081,838.969,7584.081,838.969Z" transform="translate(-7408.679 -639.484)"/>
    <path id="Path_131" data-name="Path 131" class="cls-3" d="M7649.128,849l41.728,34.491-60.782,34.491L7591,875.29Z" transform="translate(-7407.319 -638.589)"/>
    <path id="Path_122" data-name="Path 122" class="cls-4" d="M7513.286,861.061s7.287-12.808,18.111-19.591,7.836-4.834,17.905-8.212a25.886,25.886,0,0,1,4.743-.39A97.827,97.827,0,0,1,7581,835.661c5.549,1.453,18.452,5.808,18.452,5.808s6.951,3.764,15.16,12.528a80.755,80.755,0,0,1,11.9,15.813l-19.986,9.891-14.714-1.688s0-8.924-2.652-12.784-5.367-7.176-13.508-11.819a70.39,70.39,0,0,0-18.124-6.668,100.439,100.439,0,0,0-18.062,0,50.057,50.057,0,0,0-13.637,3.554s-8.624,7.533-12.543,12.658Z" transform="translate(-7423.328 -642.036)"/>
    <g class="cls-21" transform="matrix(1, 0, 0, 1, 53, 147)">
      <path id="Path_124-2" data-name="Path 124" class="cls-5" d="M7667.029,904.29V975.3l-58.842,38.75-42.194-12.63-15.5-4.306-41.333-13.491,2.583-39.037,10.907-81.805,70.037,8.611,15.5,1.722,38.462,41.62Z" transform="translate(-7477.18 -782.75)"/>
    </g>
    <path id="Path_136" data-name="Path 136" class="cls-6" d="M7621.06,906.51l.634,75.9,22.484-14.462-.527-70.832L7623.8,908.2Z" transform="translate(-7401.127 -628.678)"/>
    <path id="Path_132" data-name="Path 132" class="cls-7" d="M7591,872.443l.149,138.7,27.13-17.1-.92-94.563Z" transform="translate(-7407.319 -633.76)"/>
    <path id="Path_127" data-name="Path 127" class="cls-8" d="M7548.278,992.325V883.958l-28.542-3.1-6.719,50.135-3.445,48.412Z" transform="translate(-7424.093 -632.027)"/>
    <path id="Path_134" data-name="Path 134" class="cls-9" d="M7601.961,955.333l-5.628,12.763,4.724-.5v10.552l4.321-1.909-.4-11.959,4.422-1.708Z" transform="translate(-7406.221 -616.686)"/>
    <path id="Path_128" data-name="Path 128" class="cls-10" d="M7541.667,991.033l.4-100.7,28.341,17.587v40.8l-11.959,24.019-9.95,20.4Z" transform="translate(-7417.481 -630.075)"/>
    <path id="Path_133" data-name="Path 133" class="cls-11" d="M7544.438,956.122v24.949s.9,4.3,6.331,4.6,7.387-3.316,7.387-3.316l-.377-22.537s-.753-5.578-6.256-5.5S7544.438,956.122,7544.438,956.122Z" transform="translate(-7416.911 -616.896)"/>
    <path id="Path_135" data-name="Path 135" class="cls-11" d="M7526.072,979.673a21.606,21.606,0,0,0,6.558-7.01s2.714-1.055,6.105,1.432,2.639,8.442,2.639,8.442a25.685,25.685,0,0,1-4.146,5.05c-2.694,2.563-2.958,3.222-6.708,4.522s-4.881,1-8.291.678a15.683,15.683,0,0,1-5.276-1.281l-.452-8.969A24.571,24.571,0,0,0,7526.072,979.673Z" transform="translate(-7424.666 -614.162)"/>
    <path id="Path_125" data-name="Path 125" class="cls-12" d="M7602.883,926.893l-103.026-21.88,11.888-48.584,96.651,19.124Z" transform="translate(-7426.094 -637.059)"/>
    <path id="Path_137" data-name="Path 137" class="cls-13" d="M7163.542,856.429l-11.536,48.351,9.411,2.483,14.247-48.23Z" transform="translate(-7078.063 -637.059)"/>
    <path id="Path_123" data-name="Path 123" class="cls-14" d="M7548.582,895.593l-8.843,35.577-9.247,45.024s-1.545,23.937-3.431,28.435-10.236,4.127-10.236,4.127-.5-13.567-5.427-38.29-6.231-60.2-6.231-60.2.854-14.874,2.11-24.823a88.18,88.18,0,0,1,2.915-14.974,58.016,58.016,0,0,1,6.13-11.959,59.037,59.037,0,0,1,9.146-9.949,64.4,64.4,0,0,1,12.663-3.919,91.289,91.289,0,0,1,14.673-1.307,59.2,59.2,0,0,1,13.266,2.814,100.545,100.545,0,0,1,14.472,6.633s5.879,2.864,9.045,7.035a20.816,20.816,0,0,1,3.618,9.648s-.5,17.487-1.809,38.391-4.422,45.124-4.422,45.124l-.8,15.979s-2.589,2.864-10.5,7.236-9.725,6.818-9.725,6.818a11.074,11.074,0,0,0-3.917-5.078c-2.813-1.859-9.357,1.016-9.357,1.016a117.767,117.767,0,0,1,8.3-11.047,47.147,47.147,0,0,1,7.513-6.583s-10.7-26.582-15.678-43.014S7548.582,895.593,7548.582,895.593Z" transform="translate(-7425 -639.757)"/>
    <path id="Path_126" data-name="Path 126" class="cls-15" d="M7535.489,860.6s-.833,5.316-1.47,10.387a56.716,56.716,0,0,1-1.764,8.721,25.021,25.021,0,0,1-8.819,1.176c-4.409-.343-2.842-.686-5.193-3.625s0-16.658,0-16.658Z" transform="translate(-7422.522 -636.2)"/>
    <path id="Path_129" data-name="Path 129" class="cls-16" d="M7549.489,863.688s-.907,4.556-1.372,9.309-.784,7.545.393,9.113,2.964,2.107,7.152,2.45,8.623.49,8.525-.686.539-4.507,1.47-9.5,2.449-10.289,2.449-10.289Z" transform="translate(-7416.239 -635.564)"/>
    <path id="Path_139" data-name="Path 139" class="cls-17" d="M7313.331,982.137c2.166,1.516,1.517,3.627,4.873,8.12a44.133,44.133,0,0,0,8.985,8.337s1.3,1.922.866,3.465-2.6,2.707-2.6,2.707-3.763.406-7.687.541-5.63.866-8.012,0-2.707-6.28-7.579-6.28-5.955,9.528-9.2,9.095-5.738-2.03-6.82-7.9-.434-8.039,1.731-11.477,9.1.541,8.879-1.3-2.139-5.278-1.408-7.687,3.9-1.732,5.306-1.3.487,2.219,4.006,2.923S7311.166,980.621,7313.331,982.137Z" transform="translate(-7050.536 -612.011)"/>
    <path id="Path_140" data-name="Path 140" class="cls-17" d="M7143.742,937.16a8.592,8.592,0,0,0,.528,6.859c1.922,3.2,5.22,1.187,7.387,3.618s2.9,3.825,0,5.352-7.218-.49-11.532-1.583-4.033-.886-4.674-2.563,3.562-2.092,3.392-4.07-3.222-1.9-4.07-3.844,2.563-1.507,4.674-3.316,1.243-2.261,2.563-2.789S7143.742,937.16,7143.742,937.16Z" transform="translate(-7081.639 -620.924)"/>
    <rect id="Rectangle_366" data-name="Rectangle 366" class="cls-18" width="24.12" height="9.648" rx="4" transform="matrix(0.839, 0.545, -0.545, 0.839, 82.127, 163.617)"/>
    <rect id="Rectangle_367" data-name="Rectangle 367" class="cls-19" width="24.12" height="9.648" rx="4" transform="translate(118.58 147) rotate(79)"/>
    <rect id="Rectangle_368" data-name="Rectangle 368" class="cls-20" width="24.12" height="9.648" rx="4" transform="matrix(-0.407, 0.914, -0.914, -0.407, 156.813, 151.909)"/>
  </g>
</svg>
